<svg width="133" height="108" viewBox="0 0 133 108" fill="none" xmlns="http://www.w3.org/2000/svg">
<circle cx="39.0873" cy="64.2798" r="30.2546" transform="rotate(-11.3289 39.0873 64.2798)" fill="#FBFBFB"/>
<circle cx="99.8657" cy="55.866" r="26.565" transform="rotate(-11.3289 99.8657 55.866)" fill="#FBFBFB"/>
<ellipse cx="71.7159" cy="48.7119" rx="35.051" ry="39.1096" transform="rotate(-11.3289 71.7159 48.7119)" fill="#FBFBFB"/>
<path d="M42.8517 58.9445C42.1003 55.9488 44.6824 54.3613 47.5107 54.5682C49.1626 54.689 51.2549 55.1761 52.1837 56.6764C52.3638 56.9674 52.5627 57.1709 52.5868 57.5153" stroke="#535353" stroke-width="4" stroke-linecap="round"/>
<path d="M79.3185 53.1436C78.5671 50.148 81.1492 48.5605 83.9775 48.7674C85.6294 48.8882 87.7217 49.3752 88.6505 50.8756C88.8306 51.1666 89.0295 51.37 89.0536 51.7145" stroke="#535353" stroke-width="4" stroke-linecap="round"/>
<path d="M53.5693 95.2445L54.4413 99.5971" stroke="#0BAEFF" stroke-width="3" stroke-miterlimit="10" stroke-linecap="round"/>
<path d="M89.0227 88.1416L89.8947 92.4941" stroke="#0BAEFF" stroke-width="3" stroke-miterlimit="10" stroke-linecap="round"/>
<path d="M58.1372 76.6242C58.9118 72.9291 60.5303 70.0637 64.4014 68.891C66.7639 68.1753 70.0513 67.8231 72.4328 68.7752C75.2953 69.9197 78.1693 72.4105 79.3819 75.201" stroke="#969696" stroke-width="6" stroke-linecap="round"/>
</svg>
