<svg width="75" height="75" viewBox="0 0 75 75" fill="none" xmlns="http://www.w3.org/2000/svg">
<g clip-path="url(#clip0_103_92)">
<path d="M52.0061 4.67938H3.18465C1.46886 4.67938 0.0650635 6.08318 0.0650635 7.79897V71.7504C0.0650635 73.4662 1.46886 74.87 3.18465 74.87H52.0061C53.7219 74.87 55.1257 73.4662 55.1257 71.7504V7.79897C55.1257 6.08318 53.7219 4.67938 52.0061 4.67938Z" fill="#FFD15C"/>
<path d="M50.8361 8.84093H4.19843V70.6087H50.8361V8.84093Z" fill="white"/>
<path d="M38.124 0H17.0668C15.195 0 13.6353 1.55979 13.6353 3.27558V11.8544H41.3996V3.27558C41.5556 1.55979 39.9958 0 38.124 0Z" fill="#FF7058"/>
<path d="M47.6386 19.0295H20.4982V22.6171H47.6386V19.0295Z" fill="#4CDBC4"/>
<path d="M47.6386 31.6637H20.4982V35.2513H47.6386V31.6637Z" fill="#4CDBC4"/>
<path d="M47.6386 44.2981H20.4982V47.8857H47.6386V44.2981Z" fill="#4CDBC4"/>
<path d="M47.6386 56.9324H20.4982V60.52H47.6386V56.9324Z" fill="#4CDBC4"/>
<path d="M15.9749 54.4367H7.39606V63.0155H15.9749V54.4367Z" fill="#CDD6E0"/>
<path d="M15.9749 41.8024H7.39606V50.3812H15.9749V41.8024Z" fill="#CDD6E0"/>
<path d="M15.9749 29.1681H7.39606V37.7469H15.9749V29.1681Z" fill="#CDD6E0"/>
<path d="M15.9749 16.5338H7.39606V25.1125H15.9749V16.5338Z" fill="#CDD6E0"/>
<path d="M10.5157 23.5529L8.48792 21.3691L9.57973 20.2773L10.5157 21.2131L13.6353 18.2495L14.7271 19.3414L10.5157 23.5529Z" fill="#40596B"/>
<path d="M10.6717 36.0311L8.64392 34.0035L9.73573 32.9115L10.6717 33.8475L13.7913 30.8839L14.8831 31.9757L10.6717 36.0311Z" fill="#40596B"/>
<path d="M63.3926 61.7678H57.9333L66.5121 73.9342C67.292 74.87 68.5399 75.182 69.6317 74.4021C70.5675 73.6223 70.8795 72.3744 70.2557 71.2826L63.3926 61.7678Z" fill="#334A5E"/>
<path d="M51.2262 61.7678L44.519 71.4385C43.7392 72.3744 44.051 73.7782 45.143 74.5581C46.0788 75.338 47.4826 75.0261 48.2626 74.0902L56.8414 61.9238H51.2262V61.7678Z" fill="#334A5E"/>
<path d="M57.3093 73.7782C67.0437 73.7782 74.9349 65.9567 74.9349 56.3084C74.9349 46.6602 67.0437 38.8387 57.3093 38.8387C47.575 38.8387 39.6838 46.6602 39.6838 56.3084C39.6838 65.9567 47.575 73.7782 57.3093 73.7782Z" fill="#40596B"/>
<path d="M57.3093 70.3466C49.5104 70.3466 43.2712 64.1074 43.2712 56.3084C43.2712 48.5095 49.6663 42.2703 57.3093 42.2703C65.1083 42.2703 71.3475 48.5095 71.3475 56.3084C71.3475 63.9514 65.1083 70.3466 57.3093 70.3466Z" fill="#F2F2F2"/>
<path d="M57.3093 45.8579C57.9985 45.8579 58.5571 45.2992 58.5571 44.6101C58.5571 43.9209 57.9985 43.3623 57.3093 43.3623C56.6202 43.3623 56.0615 43.9209 56.0615 44.6101C56.0615 45.2992 56.6202 45.8579 57.3093 45.8579Z" fill="#FF7058"/>
<path d="M57.3093 69.0988C57.9985 69.0988 58.5571 68.5401 58.5571 67.851C58.5571 67.1618 57.9985 66.6032 57.3093 66.6032C56.6202 66.6032 56.0615 67.1618 56.0615 67.851C56.0615 68.5401 56.6202 69.0988 57.3093 69.0988Z" fill="#FF7058"/>
<path d="M69.0079 57.5562C69.697 57.5562 70.2557 56.9976 70.2557 56.3084C70.2557 55.6193 69.697 55.0606 69.0079 55.0606C68.3187 55.0606 67.7601 55.6193 67.7601 56.3084C67.7601 56.9976 68.3187 57.5562 69.0079 57.5562Z" fill="#FF7058"/>
<path d="M45.611 57.5562C46.3001 57.5562 46.8588 56.9976 46.8588 56.3084C46.8588 55.6193 46.3001 55.0606 45.611 55.0606C44.9218 55.0606 44.3632 55.6193 44.3632 56.3084C44.3632 56.9976 44.9218 57.5562 45.611 57.5562Z" fill="#FF7058"/>
<path d="M56.8415 56.3084C56.8415 55.8405 57.3095 55.3726 57.7773 55.3726H63.0807C63.5487 55.3726 64.0165 55.8406 64.0165 56.3084C64.0165 56.7764 63.5485 57.2443 63.0807 57.2443H57.7773C57.3093 57.0884 56.8415 56.7764 56.8415 56.3084Z" fill="#FFD15C"/>
<path d="M57.3093 46.7937C57.7773 46.7937 58.2452 47.2617 58.2452 47.7295V56.1523C58.2452 56.6203 57.7772 57.0881 57.3093 57.0881C56.8414 57.0881 56.3735 56.6201 56.3735 56.1523V47.7295C56.3735 47.2617 56.8415 46.7937 57.3093 46.7937Z" fill="#FFD15C"/>
<path d="M57.3093 58.4922C58.5154 58.4922 59.4931 57.5145 59.4931 56.3085C59.4931 55.1024 58.5154 54.1247 57.3093 54.1247C56.1033 54.1247 55.1255 55.1024 55.1255 56.3085C55.1255 57.5145 56.1033 58.4922 57.3093 58.4922Z" fill="#FF7058"/>
<path d="M51.8501 35.0953L67.7601 19.3414L60.5851 12.1664L44.6751 27.9203C44.5191 28.0763 44.5191 28.2323 44.3632 28.2323C44.3632 28.3883 44.2072 28.5443 44.2072 28.5443L44.0512 28.8563L42.6474 34.1596L41.7115 37.9032L45.4551 36.9674L50.9143 35.5636L51.2263 35.4076C51.3823 35.4076 51.5383 35.2516 51.5383 35.2516C51.5383 35.2516 51.6941 35.0953 51.8501 35.0953Z" fill="#FFD15C"/>
<path d="M45.923 30.8839L62.6127 14.1941L60.4289 12.0104L44.675 27.9203C44.519 28.0763 44.519 28.2323 44.363 28.2323C44.363 28.3883 44.207 28.5443 44.207 28.5443L44.051 28.8563L45.923 30.8839Z" fill="#FF7058"/>
<path d="M51.8501 35.0953L67.7601 19.3414L65.5763 17.1576L48.8865 33.6915L50.7583 35.5633L51.0703 35.4073C51.2263 35.4073 51.3823 35.2513 51.3823 35.2513C51.5381 35.2513 51.6941 35.0953 51.8501 35.0953Z" fill="#FF7058"/>
<path d="M45.299 36.9671L42.6474 34.3155L41.5555 38.0589L45.299 36.9671Z" fill="#334A5E"/>
<path d="M73.8431 8.5788L71.0355 5.7712C69.7877 4.52339 67.7599 4.52339 66.6681 5.7712L62.6127 9.82675L69.7877 17.0017L73.8431 12.9463C75.0911 11.8544 75.0911 9.82675 73.8431 8.5788Z" fill="#40596B"/>
<path d="M45.923 30.8839L62.6127 14.1941L65.5763 17.1577L48.8866 33.6915L45.923 30.8839Z" fill="#F1543F"/>
<path d="M62.6127 9.98259L69.7877 17.1577L67.604 19.3414L60.429 12.1664L62.6127 9.98259Z" fill="#FFD15C"/>
</g>
<defs>
<clipPath id="clip0_103_92">
<rect width="75" height="75" fill="white"/>
</clipPath>
</defs>
</svg>
