<svg width="75" height="75" viewBox="0 0 75 75" fill="none" xmlns="http://www.w3.org/2000/svg">
<path d="M37.5 75C58.2107 75 75 58.2107 75 37.5C75 16.7893 58.2107 0 37.5 0C16.7893 0 0 16.7893 0 37.5C0 58.2107 16.7893 75 37.5 75Z" fill="#4F5D73"/>
<g opacity="0.2">
<path d="M25.7812 39.8438C32.2533 39.8438 37.5 34.5971 37.5 28.125C37.5 21.6529 32.2533 16.4062 25.7812 16.4062C19.3092 16.4062 14.0625 21.6529 14.0625 28.125C14.0625 34.5971 19.3092 39.8438 25.7812 39.8438Z" fill="#231F20"/>
</g>
<path d="M25.7812 37.5C32.2533 37.5 37.5 32.2533 37.5 25.7812C37.5 19.3092 32.2533 14.0625 25.7812 14.0625C19.3092 14.0625 14.0625 19.3092 14.0625 25.7812C14.0625 32.2533 19.3092 37.5 25.7812 37.5Z" fill="#E0995E"/>
<g opacity="0.2">
<path d="M57.0703 42.1875C57.0703 33.1641 49.3359 25.7812 39.8438 25.7812C31.7578 25.7812 25.0781 31.0547 23.2031 38.2031C18.0469 38.9062 14.0625 43.2422 14.0625 48.2812C14.0625 53.9063 18.8672 58.5938 24.8438 58.5938H57.0703C61.875 58.5938 65.625 54.9609 65.625 50.3906C65.625 45.8203 61.7578 42.1875 57.0703 42.1875Z" fill="#231F20"/>
</g>
<g opacity="0.2">
<path d="M37.5 25.7812C37.5 24.6094 37.2656 23.4375 37.0313 22.3828C29.7656 23.0859 23.7891 28.125 22.0312 34.6875C21.0937 34.8047 20.1563 35.1562 19.2188 35.5078C21.0938 36.7969 23.3203 37.5 25.7813 37.5C32.2266 37.5 37.5 32.2266 37.5 25.7812Z" fill="#231F20"/>
</g>
<path d="M57.0703 39.8438C57.0703 30.8203 49.3359 23.4375 39.8438 23.4375C31.7578 23.4375 25.0781 28.7109 23.2031 35.8594C18.0469 36.5625 14.0625 40.8984 14.0625 45.9375C14.0625 51.5625 18.8672 56.25 24.8438 56.25H57.0703C61.875 56.25 65.625 52.6172 65.625 48.0469C65.625 43.4766 61.7578 39.8438 57.0703 39.8438Z" fill="white"/>
</svg>
