<svg width="321" height="321" viewBox="0 0 321 321" fill="none" xmlns="http://www.w3.org/2000/svg">
<g filter="url(#filter0_d_135_2)">
<path d="M160.5 260.109C215.513 260.109 260.109 215.513 260.109 160.5C260.109 105.487 215.513 60.8906 160.5 60.8906C105.487 60.8906 60.8906 105.487 60.8906 160.5C60.8906 215.513 105.487 260.109 160.5 260.109Z" fill="#FAA320"/>
</g>
<path d="M160.5 2.29688V37.4531" stroke="#EF8F00" stroke-width="3" stroke-miterlimit="10" stroke-linecap="round"/>
<path d="M160.5 283.547V318.703" stroke="#EF8F00" stroke-width="3" stroke-miterlimit="10" stroke-linecap="round"/>
<path d="M318.703 160.5H283.547" stroke="#EF8F00" stroke-width="3" stroke-miterlimit="10" stroke-linecap="round"/>
<path d="M37.4531 160.5H2.29688" stroke="#EF8F00" stroke-width="3" stroke-miterlimit="10" stroke-linecap="round"/>
<path d="M272.355 48.6445L247.512 73.4883" stroke="#EF8F00" stroke-width="3" stroke-miterlimit="10" stroke-linecap="round"/>
<path d="M73.4883 247.512L48.6445 272.355" stroke="#EF8F00" stroke-width="3" stroke-miterlimit="10" stroke-linecap="round"/>
<path d="M272.355 272.355L247.512 247.512" stroke="#EF8F00" stroke-width="3" stroke-miterlimit="10" stroke-linecap="round"/>
<path d="M73.4883 73.4883L48.6445 48.6445" stroke="#EF8F00" stroke-width="3" stroke-miterlimit="10" stroke-linecap="round"/>
<defs>
<filter id="filter0_d_135_2" x="30.8906" y="30.8906" width="259.219" height="259.219" filterUnits="userSpaceOnUse" color-interpolation-filters="sRGB">
<feFlood flood-opacity="0" result="BackgroundImageFix"/>
<feColorMatrix in="SourceAlpha" type="matrix" values="0 0 0 0 0 0 0 0 0 0 0 0 0 0 0 0 0 0 127 0" result="hardAlpha"/>
<feOffset/>
<feGaussianBlur stdDeviation="15"/>
<feComposite in2="hardAlpha" operator="out"/>
<feColorMatrix type="matrix" values="0 0 0 0 0.937255 0 0 0 0 0.8 0 0 0 0 0 0 0 0 0.52 0"/>
<feBlend mode="normal" in2="BackgroundImageFix" result="effect1_dropShadow_135_2"/>
<feBlend mode="normal" in="SourceGraphic" in2="effect1_dropShadow_135_2" result="shape"/>
</filter>
</defs>
</svg>
