<svg width="75" height="75" viewBox="0 0 75 75" fill="none" xmlns="http://www.w3.org/2000/svg">
<path d="M37.4969 74.9968C58.2059 74.9968 74.9939 58.2089 74.9939 37.4999C74.9939 16.7909 58.2059 0.00299072 37.4969 0.00299072C16.7879 0.00299072 0 16.7909 0 37.4999C0 58.2089 16.7879 74.9968 37.4969 74.9968Z" fill="#EA8953"/>
<path opacity="0.1" d="M74.9998 37.5812C75.0017 36.6951 74.9616 35.8193 74.903 34.9484L58.8115 18.8569L58.807 18.8614C58.6551 18.6914 58.4409 18.5785 58.1984 18.5785L16.8813 18.4935C16.4218 18.4935 16.0561 18.8594 16.0561 19.3189L16.0051 44.0445L15.9966 48.5114C15.9919 48.7628 16.1128 48.9819 16.2944 49.1341L16.2841 49.1387L41.8854 74.7401C60.4957 72.5708 74.9604 56.7809 74.9998 37.5812Z" fill="black"/>
<path d="M16.0019 44.0484L15.9927 48.5074C15.9917 48.9647 16.3617 49.3362 16.819 49.337L58.1318 49.4219C58.5891 49.4229 58.9605 49.053 58.9615 48.5958L58.9706 44.1367L16.0019 44.0484Z" fill="#64798A"/>
<path d="M59.0215 19.4068C59.0225 18.9496 58.6526 18.578 58.1953 18.5772L16.8825 18.4923C16.4252 18.4913 16.0537 18.8612 16.0527 19.3185L16.0019 44.0484L58.9707 44.1367L59.0215 19.4068Z" fill="#64798A"/>
<path d="M56.4173 21.8588C56.4181 21.447 56.0931 21.1125 55.6911 21.1116L19.3762 21.0372C18.9742 21.0364 18.6477 21.3696 18.6468 21.7812L18.6011 44.0538L56.3716 44.1314L56.4173 21.8588Z" fill="#EBF0F3"/>
<path d="M37.4781 47.9246C38.1355 47.9246 38.6685 47.3917 38.6685 46.7343C38.6685 46.0769 38.1355 45.5439 37.4781 45.5439C36.8207 45.5439 36.2878 46.0769 36.2878 46.7343C36.2878 47.3917 36.8207 47.9246 37.4781 47.9246Z" fill="#3A556A"/>
<path d="M29.0918 54.821L45.8246 54.8545L45.8355 49.3979L29.1027 49.3644L29.0918 54.821Z" fill="#3A556A"/>
<path d="M29.098 54.8188L29.1093 49.3622L45.8417 49.3966L29.098 54.8188Z" fill="#2F4859"/>
<path d="M27.2638 56.4553L47.6519 56.4961L47.6552 54.8582L27.2671 54.8174L27.2638 56.4553Z" fill="#2F4859"/>
<path d="M56.3686 44.1318L56.3699 43.4877L18.6008 43.4084L18.5995 44.0525L56.3686 44.1318Z" fill="#E1E6E9"/>
<path d="M24.1301 41.0805L24.1319 40.2024L20.9038 40.1956L20.902 41.0737L24.1301 41.0805Z" fill="#F6C358"/>
<path d="M24.1322 40.2004L24.147 33.1724L20.9189 33.1656L20.9041 40.1936L24.1322 40.2004Z" fill="#FCD462"/>
<path d="M30.0744 41.0913L30.0762 40.2132L26.8481 40.2068L26.8463 41.0849L30.0744 41.0913Z" fill="#3EA69B"/>
<path d="M30.078 40.2138L30.0983 30.0852L26.8702 30.0787L26.8499 40.2073L30.078 40.2138Z" fill="#44C4A1"/>
<path d="M36.0242 41.0985L36.0261 40.2204L32.798 40.2136L32.7962 41.0917L36.0242 41.0985Z" fill="#D15241"/>
<path d="M36.0218 40.2207L36.0473 28.0732L32.8192 28.0665L32.7937 40.214L36.0218 40.2207Z" fill="#E56353"/>
<path d="M41.9676 41.1163L41.9694 40.2382L38.7414 40.2315L38.7395 41.1096L41.9676 41.1163Z" fill="#2D93BA"/>
<path d="M41.9803 40.2389L42.009 25.8792L38.7809 25.8728L38.7522 40.2325L41.9803 40.2389Z" fill="#27A2DB"/>
<path d="M49.0048 41.1295L49.0079 39.5845C47.0743 39.3824 45.3397 38.6107 43.806 37.2658L45.3548 35.4276C46.5377 36.4601 47.7558 37.0775 49.0128 37.2764L49.0212 33.1702C47.4271 32.7864 46.2603 32.2845 45.521 31.6611C44.7816 31.0396 44.4132 30.1173 44.4157 28.8962C44.4182 27.6768 44.8458 26.6787 45.7016 25.9053C46.5574 25.1302 47.6692 24.7088 49.0387 24.641L49.0408 23.5834L50.3946 23.5862L50.3922 24.6661C51.9439 24.7813 53.4102 25.3147 54.7914 26.2614L53.4111 28.2066C52.4806 27.5415 51.4739 27.1296 50.3874 26.9724L50.3793 30.9511H50.4431C52.0648 31.3351 53.2557 31.8542 54.0155 32.5034C54.7772 33.1543 55.156 34.0972 55.1533 35.3321C55.1508 36.567 54.7113 37.5702 53.8347 38.3453C52.9581 39.1185 51.8016 39.5398 50.3615 39.6074L50.3583 41.1318L49.0048 41.1295ZM47.5396 27.4647C47.1788 27.781 46.999 28.1767 46.998 28.6486C46.997 29.1222 47.1374 29.4945 47.4194 29.7707C47.6996 30.0467 48.2365 30.3133 49.0264 30.568L49.0339 26.9062C48.3982 26.9619 47.9002 27.1485 47.5396 27.4647ZM51.9763 36.7539C52.3713 36.431 52.5702 36.0214 52.5712 35.527C52.5722 35.0345 52.418 34.6414 52.1085 34.3515C51.7975 34.0631 51.2193 33.7899 50.3739 33.5332L50.3661 37.343C51.0433 37.2739 51.5793 37.0787 51.9763 36.7539Z" fill="#DC8744"/>
</svg>
